<svg xmlns="http://www.w3.org/2000/svg" version="1.1" xmlns:xlink="http://www.w3.org/1999/xlink" xmlns:svgjs="http://svgjs.com/svgjs" width="1920" height="1080" preserveAspectRatio="none" viewBox="0 0 1920 1080"><g mask="url(&quot;#SvgjsMask1033&quot;)" fill="none"><rect width="1920" height="1080" x="0" y="0" fill="rgba(241, 245, 249, 1)"></rect><path d="M25 1080L1105 0L1976.5 0L896.5 1080z" fill="url(#SvgjsLinearGradient1034)"></path><path d="M655.6 1080L1735.6 0L2542.6 0L1462.6 1080z" fill="url(#SvgjsLinearGradient1034)"></path><path d="M1816 1080L736 0L304 0L1384 1080z" fill="url(#SvgjsLinearGradient1035)"></path><path d="M1165.4 1080L85.40000000000009 0L-505.5999999999999 0L574.4000000000001 1080z" fill="url(#SvgjsLinearGradient1035)"></path><path d="M1193.08983358113 1080L1920 353.08983358113005L1920 1080z" fill="url(#SvgjsLinearGradient1034)"></path><path d="M0 1080L726.91016641887 1080L 0 353.08983358113005z" fill="url(#SvgjsLinearGradient1035)"></path></g><defs><mask id="SvgjsMask1033"><rect width="1920" height="1080" fill="#ffffff"></rect></mask><linearGradient x1="0%" y1="100%" x2="100%" y2="0%" id="SvgjsLinearGradient1034"><stop stop-color="rgba(254, 202, 202, 0.6)" offset="0"></stop><stop stop-opacity="0" stop-color="rgba(254, 202, 202, 0.6)" offset="0.66"></stop></linearGradient><linearGradient x1="100%" y1="100%" x2="0%" y2="0%" id="SvgjsLinearGradient1035"><stop stop-color="rgba(254, 202, 202, 0.6)" offset="0"></stop><stop stop-opacity="0" stop-color="rgba(254, 202, 202, 0.6)" offset="0.66"></stop></linearGradient></defs></svg>